<svg viewBox="0 0 32 32" width="26" height="26" fill="none" xmlns="http://www.w3.org/2000/svg" aria-hidden="true"><path d="M26 6.2 14.5 17.7" stroke="currentColor" stroke-width="2.3" stroke-linecap="round"/><path d="M14.6 17.6c-1 .3-2.4 1-3.6 2.2-2.1 2.1-3.9 6.6-4.6 8.6-.2.5.3 1 .8.8 2-.7 6.5-2.5 8.6-4.6 1.2-1.2 1.9-2.6 2.2-3.6l-3.4-3.4Z" fill="currentColor"/><path d="M8 22.5 5.4 28m5-3.6L8.7 29m4.6-3.2-1.4 3.8" stroke="#241a5c" stroke-width="1" stroke-linecap="round" opacity=".55"/><path d="m24.5 11.5.7 1.9 1.9.7-1.9.7-.7 1.9-.7-1.9-1.9-.7 1.9-.7z" fill="currentColor"/></svg>
